<?xml version="1.0" encoding="UTF-8"?>
<svg xmlns="http://www.w3.org/2000/svg" xmlns:xlink="http://www.w3.org/1999/xlink" width="2384" height="1684" viewBox="0 0 2384 1684">
<defs>
<clipPath id="clip-0">
<path clip-rule="nonzero" d="M 179 169 L 1348 169 L 1348 1561 L 179 1561 Z M 179 169 "/>
</clipPath>
<clipPath id="clip-1">
<path clip-rule="nonzero" d="M 269.511719 1560.96875 C 260.285156 1557.339844 243.59375 1551.871094 238.679688 1546.949219 C 237.84375 1546.109375 237.347656 1545.289062 237.289062 1544.5 L 179.640625 782.382812 C 178.589844 768.53125 185.339844 756.128906 197.3125 749.917969 L 753.144531 461.5 C 754.472656 462.191406 755.0625 462.398438 755.0625 462.398438 L 799.753906 464.300781 L 226.222656 762.542969 C 214.292969 768.746094 207.554688 781.109375 208.574219 794.914062 L 264.761719 1554.519531 C 264.980469 1557.449219 266.953125 1559.808594 269.511719 1560.96875 M 875.082031 425.121094 C 863.597656 422.671875 851.769531 420.171875 842.089844 418.128906 L 843.078125 414.828125 L 1313.578125 170.679688 C 1314.78125 170.058594 1316.359375 169.71875 1318.25 169.71875 L 1318.359375 169.71875 C 1325.238281 169.738281 1336.121094 174.121094 1347.101562 185.109375 C 1347.390625 185.410156 1347.691406 185.710938 1347.988281 186.019531 C 1346.269531 184.371094 1344.058594 183.371094 1341.808594 183.371094 C 1340.640625 183.371094 1339.460938 183.640625 1338.339844 184.21875 L 875.082031 425.121094 "/>
</clipPath>
<clipPath id="clip-2">
<path clip-rule="nonzero" d="M 269.511719 1560.96875 C 260.285156 1557.339844 243.59375 1551.871094 238.679688 1546.949219 C 237.84375 1546.109375 237.347656 1545.289062 237.289062 1544.5 L 179.640625 782.382812 C 178.589844 768.53125 185.339844 756.128906 197.3125 749.917969 L 753.144531 461.5 C 754.472656 462.191406 755.0625 462.398438 755.0625 462.398438 L 799.753906 464.300781 L 226.222656 762.542969 C 214.292969 768.746094 207.554688 781.109375 208.574219 794.914062 L 264.761719 1554.519531 C 264.980469 1557.449219 266.953125 1559.808594 269.511719 1560.96875 M 875.082031 425.121094 C 863.597656 422.671875 851.769531 420.171875 842.089844 418.128906 L 843.078125 414.828125 L 1313.578125 170.679688 C 1314.78125 170.058594 1316.359375 169.71875 1318.25 169.71875 L 1318.359375 169.71875 C 1325.238281 169.738281 1336.121094 174.121094 1347.101562 185.109375 C 1347.390625 185.410156 1347.691406 185.710938 1347.988281 186.019531 C 1346.269531 184.371094 1344.058594 183.371094 1341.808594 183.371094 C 1340.640625 183.371094 1339.460938 183.640625 1338.339844 184.21875 L 875.082031 425.121094 "/>
</clipPath>
<linearGradient id="linear-pattern-0" gradientUnits="userSpaceOnUse" x1="-0.0338275" y1="0" x2="1.005466" y2="0" gradientTransform="matrix(1383.97, -969.068, 969.068, 1383.97, 86.2065, 1329.39)">
<stop offset="0" stop-color="rgb(39.607239%, 78.430176%, 81.567383%)" stop-opacity="1"/>
<stop offset="0.25" stop-color="rgb(39.607239%, 78.430176%, 81.567383%)" stop-opacity="1"/>
<stop offset="0.3125" stop-color="rgb(39.607239%, 78.430176%, 81.567383%)" stop-opacity="1"/>
<stop offset="0.328125" stop-color="rgb(39.607239%, 78.430176%, 81.567383%)" stop-opacity="1"/>
<stop offset="0.335937" stop-color="rgb(39.674377%, 78.430176%, 81.567383%)" stop-opacity="1"/>
<stop offset="0.34375" stop-color="rgb(39.86969%, 78.430176%, 81.567383%)" stop-opacity="1"/>
<stop offset="0.351562" stop-color="rgb(40.118408%, 78.549194%, 81.686401%)" stop-opacity="1"/>
<stop offset="0.359375" stop-color="rgb(40.313721%, 78.744507%, 81.881714%)" stop-opacity="1"/>
<stop offset="0.367187" stop-color="rgb(40.562439%, 78.822327%, 81.959534%)" stop-opacity="1"/>
<stop offset="0.371094" stop-color="rgb(40.95459%, 79.017639%, 81.959534%)" stop-opacity="1"/>
<stop offset="0.375" stop-color="rgb(41.175842%, 79.214478%, 81.959534%)" stop-opacity="1"/>
<stop offset="0.378906" stop-color="rgb(41.371155%, 79.214478%, 81.985474%)" stop-opacity="1"/>
<stop offset="0.382812" stop-color="rgb(41.567993%, 79.214478%, 82.012939%)" stop-opacity="1"/>
<stop offset="0.390625" stop-color="rgb(41.619873%, 79.214478%, 82.182312%)" stop-opacity="1"/>
<stop offset="0.394531" stop-color="rgb(41.893005%, 79.214478%, 82.351685%)" stop-opacity="1"/>
<stop offset="0.398437" stop-color="rgb(42.115784%, 79.214478%, 82.351685%)" stop-opacity="1"/>
<stop offset="0.40625" stop-color="rgb(42.233276%, 79.318237%, 82.351685%)" stop-opacity="1"/>
<stop offset="0.414062" stop-color="rgb(42.481995%, 79.51355%, 82.351685%)" stop-opacity="1"/>
<stop offset="0.421875" stop-color="rgb(42.677307%, 79.606628%, 82.507324%)" stop-opacity="1"/>
<stop offset="0.429687" stop-color="rgb(42.926025%, 79.606628%, 82.702637%)" stop-opacity="1"/>
<stop offset="0.433594" stop-color="rgb(43.318176%, 79.606628%, 82.743835%)" stop-opacity="1"/>
<stop offset="0.4375" stop-color="rgb(43.528748%, 79.606628%, 82.743835%)" stop-opacity="1"/>
<stop offset="0.445312" stop-color="rgb(43.528748%, 79.64325%, 82.743835%)" stop-opacity="1"/>
<stop offset="0.453125" stop-color="rgb(43.591309%, 79.840088%, 82.743835%)" stop-opacity="1"/>
<stop offset="0.460937" stop-color="rgb(43.786621%, 79.998779%, 82.832336%)" stop-opacity="1"/>
<stop offset="0.46875" stop-color="rgb(44.035339%, 79.998779%, 83.027649%)" stop-opacity="1"/>
<stop offset="0.472656" stop-color="rgb(44.371033%, 80.13916%, 83.135986%)" stop-opacity="1"/>
<stop offset="0.476562" stop-color="rgb(44.593811%, 80.279541%, 83.135986%)" stop-opacity="1"/>
<stop offset="0.484375" stop-color="rgb(44.648743%, 80.334473%, 83.135986%)" stop-opacity="1"/>
<stop offset="0.492187" stop-color="rgb(44.897461%, 80.39093%, 83.135986%)" stop-opacity="1"/>
<stop offset="0.5" stop-color="rgb(45.114136%, 80.39093%, 83.157349%)" stop-opacity="1"/>
<stop offset="0.507812" stop-color="rgb(45.314026%, 80.39093%, 83.354187%)" stop-opacity="1"/>
<stop offset="0.515625" stop-color="rgb(45.562744%, 80.464172%, 83.528137%)" stop-opacity="1"/>
<stop offset="0.523437" stop-color="rgb(45.758057%, 80.661011%, 83.528137%)" stop-opacity="1"/>
<stop offset="0.53125" stop-color="rgb(46.006775%, 80.783081%, 83.528137%)" stop-opacity="1"/>
<stop offset="0.535156" stop-color="rgb(46.353149%, 80.783081%, 83.528137%)" stop-opacity="1"/>
<stop offset="0.539062" stop-color="rgb(46.575928%, 80.783081%, 83.528137%)" stop-opacity="1"/>
<stop offset="0.546875" stop-color="rgb(46.620178%, 80.783081%, 83.528137%)" stop-opacity="1"/>
<stop offset="0.550781" stop-color="rgb(46.672058%, 80.789185%, 83.72345%)" stop-opacity="1"/>
<stop offset="0.554687" stop-color="rgb(46.679688%, 80.796814%, 83.920288%)" stop-opacity="1"/>
<stop offset="0.5625" stop-color="rgb(46.868896%, 80.986023%, 83.920288%)" stop-opacity="1"/>
<stop offset="0.578125" stop-color="rgb(47.142029%, 81.175232%, 83.920288%)" stop-opacity="1"/>
<stop offset="0.582031" stop-color="rgb(47.447205%, 81.175232%, 83.920288%)" stop-opacity="1"/>
<stop offset="0.585937" stop-color="rgb(47.669983%, 81.175232%, 83.920288%)" stop-opacity="1"/>
<stop offset="0.59375" stop-color="rgb(47.755432%, 81.175232%, 83.920288%)" stop-opacity="1"/>
<stop offset="0.601562" stop-color="rgb(47.842407%, 81.336975%, 83.920288%)" stop-opacity="1"/>
<stop offset="0.609375" stop-color="rgb(47.842407%, 81.532288%, 83.920288%)" stop-opacity="1"/>
<stop offset="0.613281" stop-color="rgb(48.03772%, 81.567383%, 84.115601%)" stop-opacity="1"/>
<stop offset="0.617187" stop-color="rgb(48.234558%, 81.567383%, 84.312439%)" stop-opacity="1"/>
<stop offset="0.625" stop-color="rgb(48.234558%, 81.567383%, 84.312439%)" stop-opacity="1"/>
<stop offset="0.632812" stop-color="rgb(48.303223%, 81.567383%, 84.312439%)" stop-opacity="1"/>
<stop offset="0.640625" stop-color="rgb(48.498535%, 81.567383%, 84.312439%)" stop-opacity="1"/>
<stop offset="0.648437" stop-color="rgb(48.747253%, 81.567383%, 84.312439%)" stop-opacity="1"/>
<stop offset="0.65625" stop-color="rgb(48.942566%, 81.567383%, 84.312439%)" stop-opacity="1"/>
<stop offset="0.664062" stop-color="rgb(49.01886%, 81.739807%, 84.312439%)" stop-opacity="1"/>
<stop offset="0.671875" stop-color="rgb(49.020386%, 81.93512%, 84.313965%)" stop-opacity="1"/>
<stop offset="0.6875" stop-color="rgb(49.217224%, 81.959534%, 84.510803%)" stop-opacity="1"/>
<stop offset="0.71875" stop-color="rgb(49.568176%, 81.959534%, 84.70459%)" stop-opacity="1"/>
<stop offset="0.734375" stop-color="rgb(49.763489%, 81.959534%, 84.70459%)" stop-opacity="1"/>
<stop offset="0.742187" stop-color="rgb(49.841309%, 81.959534%, 84.70459%)" stop-opacity="1"/>
<stop offset="0.75" stop-color="rgb(50.038147%, 81.959534%, 84.70459%)" stop-opacity="1"/>
<stop offset="0.78125" stop-color="rgb(50.195312%, 81.959534%, 84.70459%)" stop-opacity="1"/>
<stop offset="0.789062" stop-color="rgb(50.195312%, 81.959534%, 84.70459%)" stop-opacity="1"/>
<stop offset="0.792969" stop-color="rgb(49.998474%, 81.959534%, 84.70459%)" stop-opacity="1"/>
<stop offset="0.796875" stop-color="rgb(49.803162%, 81.959534%, 84.70459%)" stop-opacity="1"/>
<stop offset="0.804688" stop-color="rgb(49.803162%, 81.959534%, 84.70459%)" stop-opacity="1"/>
<stop offset="0.808594" stop-color="rgb(49.606323%, 81.959534%, 84.70459%)" stop-opacity="1"/>
<stop offset="0.8125" stop-color="rgb(49.411011%, 81.959534%, 84.70459%)" stop-opacity="1"/>
<stop offset="0.820312" stop-color="rgb(49.411011%, 81.959534%, 84.70459%)" stop-opacity="1"/>
<stop offset="0.824219" stop-color="rgb(49.214172%, 81.959534%, 84.507751%)" stop-opacity="1"/>
<stop offset="0.828125" stop-color="rgb(49.01886%, 81.959534%, 84.312439%)" stop-opacity="1"/>
<stop offset="0.832031" stop-color="rgb(49.01886%, 81.762695%, 84.312439%)" stop-opacity="1"/>
<stop offset="0.835938" stop-color="rgb(49.01886%, 81.567383%, 84.312439%)" stop-opacity="1"/>
<stop offset="0.839844" stop-color="rgb(48.722839%, 81.567383%, 84.312439%)" stop-opacity="1"/>
<stop offset="0.84375" stop-color="rgb(48.428345%, 81.567383%, 84.312439%)" stop-opacity="1"/>
<stop offset="0.851562" stop-color="rgb(48.280334%, 81.567383%, 84.262085%)" stop-opacity="1"/>
<stop offset="0.855469" stop-color="rgb(47.987366%, 81.370544%, 84.066772%)" stop-opacity="1"/>
<stop offset="0.859375" stop-color="rgb(47.840881%, 81.175232%, 83.920288%)" stop-opacity="1"/>
<stop offset="0.863281" stop-color="rgb(47.497559%, 81.175232%, 83.920288%)" stop-opacity="1"/>
<stop offset="0.867188" stop-color="rgb(47.154236%, 81.175232%, 83.920288%)" stop-opacity="1"/>
<stop offset="0.871094" stop-color="rgb(46.910095%, 80.978394%, 83.920288%)" stop-opacity="1"/>
<stop offset="0.875" stop-color="rgb(46.665955%, 80.783081%, 83.920288%)" stop-opacity="1"/>
<stop offset="0.878906" stop-color="rgb(46.418762%, 80.783081%, 83.72345%)" stop-opacity="1"/>
<stop offset="0.882812" stop-color="rgb(46.173096%, 80.783081%, 83.528137%)" stop-opacity="1"/>
<stop offset="0.886719" stop-color="rgb(45.829773%, 80.586243%, 83.526611%)" stop-opacity="1"/>
<stop offset="0.890625" stop-color="rgb(45.487976%, 80.39093%, 83.526611%)" stop-opacity="1"/>
<stop offset="0.894531" stop-color="rgb(45.144653%, 80.39093%, 83.331299%)" stop-opacity="1"/>
<stop offset="0.898438" stop-color="rgb(44.801331%, 80.39093%, 83.135986%)" stop-opacity="1"/>
<stop offset="0.902344" stop-color="rgb(44.458008%, 80.194092%, 83.036804%)" stop-opacity="1"/>
<stop offset="0.90625" stop-color="rgb(44.114685%, 79.998779%, 82.939148%)" stop-opacity="1"/>
<stop offset="0.910156" stop-color="rgb(43.771362%, 79.801941%, 82.841492%)" stop-opacity="1"/>
<stop offset="0.914062" stop-color="rgb(43.429565%, 79.606628%, 82.743835%)" stop-opacity="1"/>
<stop offset="0.917969" stop-color="rgb(42.89093%, 79.605103%, 82.546997%)" stop-opacity="1"/>
<stop offset="0.921875" stop-color="rgb(42.352295%, 79.605103%, 82.351685%)" stop-opacity="1"/>
<stop offset="0.925781" stop-color="rgb(42.007446%, 79.40979%, 82.351685%)" stop-opacity="1"/>
<stop offset="0.929688" stop-color="rgb(41.664124%, 79.214478%, 82.351685%)" stop-opacity="1"/>
<stop offset="0.933594" stop-color="rgb(41.223145%, 79.017639%, 82.154846%)" stop-opacity="1"/>
<stop offset="0.9375" stop-color="rgb(40.782166%, 78.822327%, 81.959534%)" stop-opacity="1"/>
<stop offset="0.941406" stop-color="rgb(40.341187%, 78.625488%, 81.762695%)" stop-opacity="1"/>
<stop offset="0.945312" stop-color="rgb(39.900208%, 78.430176%, 81.567383%)" stop-opacity="1"/>
<stop offset="0.953125" stop-color="rgb(39.753723%, 78.430176%, 81.567383%)" stop-opacity="1"/>
<stop offset="0.96875" stop-color="rgb(39.607239%, 78.430176%, 81.567383%)" stop-opacity="1"/>
<stop offset="1" stop-color="rgb(39.607239%, 78.430176%, 81.567383%)" stop-opacity="1"/>
</linearGradient>
</defs>
<path fill-rule="nonzero" fill="rgb(39.598083%, 78.514099%, 81.639099%)" fill-opacity="1" d="M 269.515625 1560.96875 C 260.289062 1557.351562 243.59375 1551.871094 238.679688 1546.949219 C 243.59375 1551.871094 260.285156 1557.339844 269.511719 1560.96875 C 269.511719 1560.96875 269.515625 1560.96875 269.515625 1560.96875 M 1347.988281 186.019531 C 1347.691406 185.710938 1347.390625 185.410156 1347.101562 185.109375 C 1347.390625 185.410156 1347.691406 185.710938 1347.988281 186.019531 M 1318.359375 169.71875 L 1318.25 169.71875 C 1318.269531 169.71875 1318.289062 169.71875 1318.308594 169.71875 C 1318.320312 169.71875 1318.339844 169.71875 1318.359375 169.71875 "/>
<g clip-path="url(#clip-0)">
<g clip-path="url(#clip-1)">
<g clip-path="url(#clip-2)">
<path fill-rule="nonzero" fill="url(#linear-pattern-0)" d="M -475.082031 627.429688 L 563.3125 2110.40625 L 2001.664062 1103.261719 L 963.269531 -379.71875 Z M -475.082031 627.429688 "/>
</g>
</g>
</g>
<path fill-rule="nonzero" fill="rgb(0%, 62.693787%, 68.164062%)" fill-opacity="1" d="M 1338.339844 184.21875 L 226.222656 762.542969 C 214.292969 768.746094 207.554688 781.109375 208.574219 794.914062 L 264.761719 1554.519531 C 265.175781 1560.089844 271.925781 1563.558594 276.972656 1560.808594 L 1348 975.328125 C 1352.238281 973.007812 1354.851562 968.433594 1354.828125 963.355469 L 1351.261719 193.660156 C 1351.230469 186.480469 1344.070312 181.25 1338.339844 184.21875 "/>
<path fill-rule="nonzero" fill="rgb(89.0625%, 91.014099%, 99.609375%)" fill-opacity="1" d="M 1322.511719 231.929688 L 268.375 781.84375 L 319.949219 1515.171875 L 1327.140625 965.496094 L 1322.511719 231.929688 "/>
<path fill-rule="nonzero" fill="rgb(95.3125%, 96.484375%, 100%)" fill-opacity="1" d="M 495.0625 1377.679688 L 482.503906 1140.738281 L 702.246094 964.273438 L 883.804688 985.292969 L 1022.339844 835.648438 L 1139.878906 718.773438 L 1234.648438 515.5 L 1237.878906 974.921875 L 495.0625 1377.679688 "/>
<path fill-rule="nonzero" fill="rgb(98.046875%, 49.804688%, 15.696716%)" fill-opacity="1" d="M 495.0625 1377.679688 L 656.539062 1220.171875 L 797.675781 1156.398438 L 910.679688 1073.371094 L 1007.308594 1012.308594 L 1094.988281 904.945312 L 1165.390625 891.8125 L 1236.261719 743.867188 L 1237.878906 974.921875 L 495.0625 1377.679688 "/>
<path fill-rule="nonzero" fill="rgb(66.209412%, 87.5%, 93.75%)" fill-opacity="1" d="M 713.925781 1261.980469 L 702.140625 961.59375 "/>
<path fill-rule="nonzero" fill="rgb(66.209412%, 87.5%, 93.75%)" fill-opacity="1" d="M 715.425781 1261.921875 L 703.640625 961.535156 C 703.609375 960.707031 702.910156 960.0625 702.082031 960.09375 C 701.253906 960.128906 700.609375 960.824219 700.644531 961.652344 L 712.425781 1262.039062 C 712.460938 1262.859375 713.15625 1263.511719 713.984375 1263.480469 C 714.8125 1263.441406 715.457031 1262.75 715.425781 1261.921875 "/>
<path fill-rule="nonzero" fill="rgb(66.209412%, 87.5%, 93.75%)" fill-opacity="1" d="M 888.867188 1163.871094 L 883.765625 983.832031 "/>
<path fill-rule="nonzero" fill="rgb(66.209412%, 87.5%, 93.75%)" fill-opacity="1" d="M 890.367188 1163.820312 L 885.261719 983.789062 C 885.238281 982.960938 884.550781 982.308594 883.722656 982.332031 C 882.894531 982.355469 882.242188 983.046875 882.265625 983.875 L 887.367188 1163.910156 C 887.390625 1164.738281 888.082031 1165.390625 888.910156 1165.371094 C 889.738281 1165.339844 890.390625 1164.648438 890.367188 1163.820312 "/>
<path fill-rule="nonzero" fill="rgb(66.209412%, 87.5%, 93.75%)" fill-opacity="1" d="M 1027.390625 1090.308594 L 1022.441406 840.613281 "/>
<path fill-rule="nonzero" fill="rgb(66.209412%, 87.5%, 93.75%)" fill-opacity="1" d="M 1028.890625 1090.28125 L 1023.941406 840.585938 C 1023.921875 839.757812 1023.238281 839.097656 1022.410156 839.113281 C 1021.578125 839.132812 1020.921875 839.816406 1020.941406 840.644531 L 1025.890625 1090.339844 C 1025.910156 1091.171875 1026.589844 1091.820312 1027.421875 1091.808594 C 1028.25 1091.789062 1028.910156 1091.109375 1028.890625 1090.28125 "/>
<path fill-rule="nonzero" fill="rgb(66.209412%, 87.5%, 93.75%)" fill-opacity="1" d="M 1139.878906 718.773438 L 1143.78125 1024.949219 "/>
<path fill-rule="nonzero" fill="rgb(66.209412%, 87.5%, 93.75%)" fill-opacity="1" d="M 1138.378906 718.792969 L 1142.28125 1024.96875 C 1142.289062 1025.800781 1142.96875 1026.460938 1143.800781 1026.449219 C 1144.628906 1026.441406 1145.289062 1025.761719 1145.28125 1024.929688 L 1141.378906 718.753906 C 1141.371094 717.925781 1140.691406 717.261719 1139.859375 717.273438 C 1139.03125 717.285156 1138.371094 717.964844 1138.378906 718.792969 "/>
<path fill-rule="nonzero" fill="rgb(66.209412%, 87.5%, 93.75%)" fill-opacity="1" d="M 495.171875 1379.820312 L 482.371094 1138.238281 "/>
<path fill-rule="nonzero" fill="rgb(66.209412%, 87.5%, 93.75%)" fill-opacity="1" d="M 496.671875 1379.738281 L 483.867188 1138.160156 C 483.824219 1137.328125 483.117188 1136.699219 482.292969 1136.738281 C 481.464844 1136.789062 480.828125 1137.488281 480.871094 1138.320312 L 493.675781 1379.898438 C 493.71875 1380.730469 494.425781 1381.359375 495.25 1381.320312 C 496.078125 1381.28125 496.714844 1380.570312 496.671875 1379.738281 "/>
<path fill-rule="nonzero" fill="rgb(14.892578%, 23.925781%, 53.709412%)" fill-opacity="1" d="M 421.804688 1420.019531 L 1275.320312 955.324219 "/>
<path fill-rule="nonzero" fill="rgb(14.892578%, 23.925781%, 53.709412%)" fill-opacity="1" d="M 422.519531 1421.328125 L 1276.03125 956.644531 C 1276.761719 956.246094 1277.03125 955.335938 1276.628906 954.609375 C 1276.238281 953.878906 1275.328125 953.613281 1274.601562 954.007812 L 421.085938 1418.699219 C 420.359375 1419.101562 420.089844 1420.011719 420.484375 1420.730469 C 420.882812 1421.460938 421.792969 1421.730469 422.519531 1421.328125 "/>
<path fill-rule="nonzero" fill="rgb(55.664062%, 63.867188%, 96.484375%)" fill-opacity="1" d="M 707.558594 949.234375 C 713.371094 952.007812 715.699219 959.933594 712.769531 966.941406 C 709.835938 973.949219 702.75 977.394531 696.9375 974.640625 C 691.113281 971.882812 688.765625 963.949219 691.699219 956.929688 C 694.636719 949.902344 701.738281 946.457031 707.558594 949.234375 "/>
<path fill-rule="nonzero" fill="rgb(55.664062%, 63.867188%, 96.484375%)" fill-opacity="1" d="M 487.65625 1125.890625 C 493.628906 1128.578125 496.109375 1136.441406 493.203125 1143.449219 C 490.296875 1150.46875 483.101562 1153.988281 477.128906 1151.320312 C 471.144531 1148.648438 468.644531 1140.78125 471.554688 1133.75 C 474.464844 1126.71875 481.675781 1123.199219 487.65625 1125.890625 "/>
<path fill-rule="nonzero" fill="rgb(55.664062%, 63.867188%, 96.484375%)" fill-opacity="1" d="M 888.976562 968.300781 C 894.605469 971.019531 896.789062 978.828125 893.867188 985.734375 C 890.941406 992.636719 884.011719 996.039062 878.382812 993.335938 C 872.746094 990.625 870.542969 982.816406 873.46875 975.898438 C 876.398438 968.976562 883.34375 965.574219 888.976562 968.300781 "/>
<path fill-rule="nonzero" fill="rgb(55.664062%, 63.867188%, 96.484375%)" fill-opacity="1" d="M 1023.988281 827.859375 C 1029.53125 830.65625 1031.628906 838.535156 1028.691406 845.453125 C 1025.738281 852.375 1018.859375 855.730469 1013.320312 852.945312 C 1007.769531 850.160156 1005.648438 842.28125 1008.601562 835.347656 C 1011.550781 828.410156 1018.441406 825.058594 1023.988281 827.859375 "/>
<path fill-rule="nonzero" fill="rgb(55.664062%, 63.867188%, 96.484375%)" fill-opacity="1" d="M 1145.25 706.207031 C 1150.710938 709.066406 1152.730469 717.007812 1149.769531 723.9375 C 1146.808594 730.867188 1139.980469 734.179688 1134.511719 731.332031 C 1129.039062 728.484375 1127 720.542969 1129.96875 713.597656 C 1132.929688 706.648438 1139.78125 703.339844 1145.25 706.207031 "/>
<path fill-rule="nonzero" fill="rgb(9.812927%, 72.068787%, 93.75%)" fill-opacity="1" d="M 650.664062 691.121094 L 651.683594 715.554688 L 399.628906 848.414062 L 397.957031 824.074219 L 650.664062 691.121094 "/>
<path fill-rule="nonzero" fill="rgb(9.812927%, 72.068787%, 93.75%)" fill-opacity="1" d="M 657.582031 738.796875 L 405.75 871.816406 L 406.085938 876.730469 L 657.785156 743.730469 L 657.582031 738.796875 "/>
<path fill-rule="nonzero" fill="rgb(9.812927%, 72.068787%, 93.75%)" fill-opacity="1" d="M 407.6875 900.9375 L 658.789062 768.003906 L 658.585938 763.082031 L 407.40625 896.007812 L 407.6875 900.9375 "/>
<path fill-rule="nonzero" fill="rgb(9.812927%, 72.068787%, 93.75%)" fill-opacity="1" d="M 1220.269531 464.96875 L 980.296875 591.960938 L 980.457031 596.828125 L 1220.308594 469.859375 L 1220.269531 464.96875 "/>
<path fill-rule="nonzero" fill="rgb(9.812927%, 72.068787%, 93.75%)" fill-opacity="1" d="M 981.199219 620.839844 L 1220.5 493.921875 L 1220.460938 489.050781 L 981.089844 615.949219 L 981.199219 620.839844 "/>
<path fill-rule="nonzero" fill="rgb(9.812927%, 72.068787%, 93.75%)" fill-opacity="1" d="M 1221.101562 414.671875 L 1221.289062 438.878906 L 981.238281 565.648438 L 980.445312 541.511719 L 1221.101562 414.671875 "/>
<path fill-rule="nonzero" fill="rgb(25.87738%, 12.939453%, 4.315186%)" fill-opacity="1" d="M 876.699219 216.808594 C 874.652344 217.789062 872.605469 218.769531 870.5625 219.75 C 874.875 211.261719 874.441406 200.539062 869.449219 192.429688 C 868.960938 194.511719 868.46875 196.589844 867.976562 198.671875 C 864.570312 189.46875 855.816406 182.480469 846.09375 181.199219 C 847.949219 183.441406 849.804688 185.691406 851.660156 187.929688 C 842.058594 183.441406 830.277344 183.941406 821.089844 189.230469 C 823.746094 189.289062 826.402344 189.351562 829.058594 189.410156 C 827.214844 189.359375 812.589844 189.199219 803.75 200.609375 C 799.648438 205.898438 798.488281 211.5 798.105469 214.609375 C 798.03125 223.03125 797.957031 231.460938 797.882812 239.890625 C 797.273438 242.828125 796.386719 249.308594 799.460938 255.921875 C 800.117188 257.328125 801.359375 259.929688 804.019531 262.320312 C 806.167969 264.25 808.601562 265.640625 812.519531 266.628906 C 820.683594 268.671875 829.679688 270.640625 837.199219 266.871094 C 840.679688 265.128906 843.476562 262.300781 846.207031 259.53125 C 852.261719 253.378906 857.132812 246.171875 863.5 240.398438 C 870.339844 234.191406 875.15625 225.949219 876.699219 216.808594 "/>
<path fill-rule="nonzero" fill="rgb(20.776367%, 10.205078%, 3.529358%)" fill-opacity="1" d="M 840.480469 251.261719 C 840.375 251.261719 840.265625 251.261719 840.160156 251.261719 C 833.484375 251.238281 826.8125 250.449219 820.3125 248.921875 C 815.050781 247.679688 809.367188 245.511719 807 240.648438 C 805.601562 237.78125 805.621094 234.429688 806.105469 231.28125 C 807.472656 222.378906 812.449219 214.101562 819.652344 208.71875 C 817.886719 208.910156 816.117188 209.109375 814.347656 209.300781 C 819.875 205.320312 826.6875 203.191406 833.496094 203.191406 C 834.921875 203.191406 836.347656 203.28125 837.761719 203.46875 C 835.574219 203.109375 833.386719 202.738281 831.203125 202.378906 C 834.164062 201.539062 837.242188 201.121094 840.324219 201.121094 C 845.089844 201.121094 849.855469 202.121094 854.195312 204.089844 C 854.023438 203.019531 853.847656 201.960938 853.675781 200.890625 C 858.386719 203.511719 861.957031 208.109375 863.324219 213.328125 C 863.863281 211.769531 864.398438 210.210938 864.9375 208.660156 C 864.976562 214.238281 865.011719 219.820312 865.050781 225.398438 C 865.640625 224.71875 866.234375 224.050781 866.824219 223.371094 C 863.367188 232.921875 861.515625 245.328125 851 249.648438 C 847.695312 251 844.054688 251.261719 840.480469 251.261719 M 839.65625 203.78125 L 839.65625 203.78125 "/>
<path fill-rule="nonzero" fill="rgb(2.745056%, 22.75238%, 32.151794%)" fill-opacity="1" d="M 728.125 420.261719 C 728.125 420.261719 728.574219 444.640625 739.714844 452.769531 C 750.851562 460.890625 755.0625 462.398438 755.0625 462.398438 L 818.875 465.109375 L 823.390625 580.988281 C 823.390625 580.988281 842.351562 592.730469 854.089844 585.808594 L 858.304688 462.398438 L 895.027344 464.808594 L 916.097656 583.398438 C 916.097656 583.398438 935.960938 587.308594 944.691406 581.898438 L 934.234375 456.078125 C 934.234375 456.078125 932.351562 438.371094 917.902344 434.628906 C 903.449219 430.890625 820.679688 413.640625 820.679688 413.640625 L 728.125 420.261719 "/>
<path fill-rule="nonzero" fill="rgb(19.993591%, 19.993591%, 19.993591%)" fill-opacity="1" d="M 967.867188 638.78125 C 971.179688 639.988281 990.742188 655.039062 990.441406 659.851562 C 990.140625 664.671875 992.546875 669.179688 981.410156 670.691406 C 970.273438 672.191406 965.457031 671.289062 956.730469 667.679688 C 948 664.070312 929.640625 651.121094 925.726562 649.621094 C 921.8125 648.109375 916.699219 643 917.300781 640.589844 C 917.902344 638.179688 922.71875 610.488281 922.71875 610.488281 C 922.71875 610.488281 931.746094 619.820312 947.097656 610.488281 C 947.097656 610.488281 964.554688 637.578125 967.867188 638.78125 "/>
<path fill-rule="nonzero" fill="rgb(19.993591%, 19.993591%, 19.993591%)" fill-opacity="1" d="M 871.925781 653.679688 C 875.234375 654.890625 894.800781 669.941406 894.5 674.75 C 894.199219 679.570312 896.605469 684.082031 885.46875 685.589844 C 874.332031 687.09375 869.515625 686.191406 860.789062 682.578125 C 852.058594 678.96875 833.699219 666.019531 829.785156 664.519531 C 825.871094 663.011719 820.753906 657.898438 821.355469 655.488281 C 821.960938 653.078125 826.773438 625.390625 826.773438 625.390625 C 826.773438 625.390625 835.804688 634.71875 851.15625 625.390625 C 851.15625 625.390625 868.613281 652.480469 871.925781 653.679688 "/>
<path fill-rule="nonzero" fill="rgb(97.65625%, 66.209412%, 54.101562%)" fill-opacity="1" d="M 947.097656 610.488281 L 944.691406 581.898438 L 919.375 583.929688 C 919.375 583.929688 922.71875 609.289062 922.71875 610.488281 C 922.71875 611.691406 938.972656 619.519531 947.097656 610.488281 "/>
<path fill-rule="nonzero" fill="rgb(97.65625%, 66.209412%, 54.101562%)" fill-opacity="1" d="M 851.382812 624.921875 L 852.996094 585.960938 L 826.667969 581.898438 C 826.667969 581.898438 826.667969 623.429688 826.667969 624.640625 C 826.667969 625.839844 843.253906 633.960938 851.382812 624.921875 "/>
<path fill-rule="nonzero" fill="rgb(7.446289%, 52.146912%, 72.459412%)" fill-opacity="1" d="M 697.421875 380.53125 C 698.328125 389.109375 696.96875 399.039062 708.710938 400.398438 C 709.660156 400.511719 710.582031 400.601562 711.472656 400.679688 C 721.574219 401.539062 727.671875 400.398438 727.671875 400.398438 L 728.125 420.261719 C 728.125 420.261719 796.300781 435.609375 841.449219 420.261719 L 845.304688 407.410156 L 868.539062 329.960938 L 868.542969 329.96875 L 868.558594 329.96875 L 868.609375 329.988281 C 870.414062 330.769531 908.292969 346.871094 927.683594 336.738281 C 947.550781 326.351562 965.160156 275.78125 959.285156 265.851562 L 957.253906 265.101562 L 938.523438 258.179688 C 938.523438 258.179688 926.328125 295.648438 916.398438 301.058594 C 906.464844 306.480469 872.800781 288.421875 861.191406 287.96875 C 849.578125 287.519531 835.972656 285.609375 831.261719 283.628906 C 826.546875 281.660156 797.824219 279.261719 797.824219 279.261719 C 797.824219 279.261719 753.859375 276.691406 749.34375 282.558594 C 744.828125 288.421875 696.519531 371.949219 697.421875 380.53125 "/>
<path fill-rule="nonzero" fill="rgb(7.054138%, 49.414062%, 68.943787%)" fill-opacity="1" d="M 792.003906 427.078125 C 758.429688 427.078125 728.125 420.261719 728.125 420.261719 L 727.671875 400.398438 L 778.84375 389.039062 C 778.84375 389.039062 778.910156 399.941406 778.460938 399.941406 C 778.097656 399.941406 809.375 407.488281 840.054688 407.488281 C 841.808594 407.488281 843.5625 407.46875 845.304688 407.410156 L 841.449219 420.261719 C 826.398438 425.378906 808.792969 427.078125 792.003906 427.078125 "/>
<path fill-rule="nonzero" fill="rgb(5.488586%, 45.872498%, 59.959412%)" fill-opacity="1" d="M 769.8125 314.308594 C 769.8125 314.308594 734.296875 359.761719 737.90625 361.269531 C 741.519531 362.769531 758.375 359.761719 765.898438 363.371094 C 773.425781 366.980469 780.949219 369.089844 780.949219 369.089844 C 780.949219 369.089844 779.746094 364.878906 773.726562 360.660156 C 767.707031 356.449219 752.957031 354.941406 752.957031 354.941406 C 752.957031 354.941406 778.539062 320.03125 769.8125 314.308594 "/>
<path fill-rule="nonzero" fill="rgb(98.826599%, 77.34375%, 71.289062%)" fill-opacity="1" d="M 780.949219 370.601562 C 780.949219 370.601562 801.117188 352.839844 805.027344 352.539062 C 808.941406 352.238281 843.554688 370.300781 831.816406 370.601562 C 820.078125 370.898438 817.257812 369.089844 817.257812 369.089844 C 817.257812 369.089844 802.359375 387.148438 797.824219 385.039062 C 793.289062 382.941406 788.171875 389.859375 782.453125 388.960938 C 776.734375 388.058594 778.84375 389.039062 778.84375 389.039062 L 780.949219 370.601562 "/>
<path fill-rule="nonzero" fill="rgb(5.488586%, 45.872498%, 59.959412%)" fill-opacity="1" d="M 868.539062 329.960938 L 868.542969 329.96875 L 868.558594 329.96875 L 868.609375 329.988281 C 870.414062 330.769531 908.292969 346.871094 927.683594 336.738281 C 947.550781 326.351562 965.160156 275.78125 959.285156 265.851562 L 957.253906 265.101562 C 950.171875 280.53125 933.429688 317.109375 929.714844 326.128906 C 924.972656 337.640625 868.539062 329.960938 868.539062 329.960938 "/>
<path fill-rule="nonzero" fill="rgb(97.65625%, 66.209412%, 54.101562%)" fill-opacity="1" d="M 932.875 242.148438 C 932.875 244.859375 940.101562 252.53125 940.101562 252.53125 L 940.101562 264.050781 C 942.960938 267.691406 945.933594 269.210938 948.65625 269.578125 C 954.539062 270.390625 959.285156 265.851562 959.285156 265.851562 C 959.285156 265.851562 962.226562 248.238281 962.226562 244.121094 C 962.226562 241.890625 958.722656 237.859375 954.539062 234.558594 C 950.996094 231.769531 946.960938 229.488281 944.164062 229.28125 C 938.070312 228.828125 932.875 239.441406 932.875 242.148438 "/>
<path fill-rule="nonzero" fill="rgb(91.796875%, 56.834412%, 45.872498%)" fill-opacity="1" d="M 948.65625 269.578125 C 954.539062 270.390625 959.285156 265.851562 959.285156 265.851562 C 959.285156 265.851562 962.226562 248.238281 962.226562 244.121094 C 962.226562 241.890625 958.722656 237.859375 954.539062 234.558594 C 957.152344 238.621094 959.171875 243.28125 956.804688 245.761719 C 952.0625 250.71875 948.054688 249.820312 946.644531 255.238281 C 945.585938 259.320312 947.402344 265.710938 948.65625 269.578125 "/>
<path fill-rule="nonzero" fill="rgb(91.796875%, 54.492188%, 43.138123%)" fill-opacity="1" d="M 930.617188 235.828125 C 931.070312 242.148438 932.875 242.148438 932.875 242.148438 L 937.867188 232.488281 C 937.867188 232.488281 930.167969 229.511719 930.617188 235.828125 "/>
<path fill-rule="nonzero" fill="rgb(97.65625%, 66.209412%, 54.101562%)" fill-opacity="1" d="M 799.835938 280.75 C 799.835938 280.75 805.355469 296.898438 820.148438 294.070312 C 822.929688 293.539062 826.042969 292.339844 829.507812 290.230469 L 832.421875 279.25 L 834.675781 270.761719 L 833.230469 269.441406 L 808.71875 247.121094 L 807.421875 252.011719 L 799.835938 280.75 "/>
<path fill-rule="nonzero" fill="rgb(91.796875%, 56.834412%, 45.872498%)" fill-opacity="1" d="M 807.421875 252.011719 C 807.421875 252.011719 805.722656 285.160156 831.261719 283.628906 L 832.421875 279.25 C 832.421875 279.25 810.867188 264.820312 807.421875 252.011719 "/>
<path fill-rule="nonzero" fill="rgb(97.65625%, 66.209412%, 54.101562%)" fill-opacity="1" d="M 807.363281 249.140625 L 807.363281 250.5 C 807.363281 251 807.386719 251.5 807.421875 252.011719 C 807.988281 259.519531 812.753906 267.679688 822.261719 274.648438 C 823.25 275.378906 824.183594 276.019531 825.066406 276.558594 C 827.84375 278.289062 830.171875 279.171875 832.421875 279.25 C 836.824219 279.410156 840.933594 276.480469 847.542969 270.820312 C 858.605469 261.339844 854.992188 252.761719 859.285156 240.339844 C 863.570312 227.929688 859.285156 214.828125 859.285156 214.828125 C 859.089844 214.261719 858.746094 213.730469 858.261719 213.25 C 856.554688 211.53125 853.136719 210.410156 848.988281 209.738281 C 837.902344 207.960938 821.621094 209.53125 818.871094 212.121094 C 814.8125 215.960938 808.945312 230.628906 808.945312 230.628906 C 805.558594 226.570312 798.78125 229.28125 797.882812 239.890625 C 796.976562 250.5 807.363281 249.140625 807.363281 249.140625 "/>
<path fill-rule="nonzero" fill="rgb(91.796875%, 56.834412%, 45.872498%)" fill-opacity="1" d="M 825.066406 276.558594 C 827.84375 278.289062 830.171875 279.171875 832.421875 279.25 C 836.824219 279.410156 840.933594 276.480469 847.542969 270.820312 C 858.605469 261.339844 854.992188 252.761719 859.285156 240.339844 C 863.570312 227.929688 859.285156 214.828125 859.285156 214.828125 C 859.089844 214.261719 858.746094 213.730469 858.261719 213.25 C 856.585938 225.46875 850.605469 251.429688 846.414062 261.339844 C 844.476562 265.921875 835.6875 273.730469 833.773438 274.878906 C 830.339844 276.960938 825.066406 276.558594 825.066406 276.558594 "/>
<path fill-rule="nonzero" fill="rgb(80.076599%, 80.076599%, 80.076599%)" fill-opacity="1" d="M 752.054688 420.859375 C 754.761719 424.261719 769.886719 427.078125 769.886719 427.078125 L 934.234375 431.769531 L 914.484375 425.679688 L 752.054688 420.859375 "/>
<path fill-rule="nonzero" fill="rgb(90.234375%, 90.234375%, 90.234375%)" fill-opacity="1" d="M 934.234375 431.769531 L 975.96875 366.828125 C 978.847656 362.351562 975.714844 356.441406 970.386719 356.308594 L 820.015625 352.761719 C 814.183594 352.621094 808.769531 355.75 805.976562 360.871094 L 769.886719 427.078125 L 934.234375 431.769531 "/>
<path fill-rule="nonzero" fill="rgb(80.076599%, 80.076599%, 80.076599%)" fill-opacity="1" d="M 766.5 429.890625 L 750.304688 424.070312 L 752.054688 420.859375 L 769.886719 427.078125 L 766.5 429.890625 "/>
<path fill-rule="nonzero" fill="rgb(80.076599%, 80.076599%, 80.076599%)" fill-opacity="1" d="M 934.234375 431.769531 C 934.234375 431.769531 931.40625 434.910156 928.699219 434.609375 C 925.988281 434.308594 766.5 429.890625 766.5 429.890625 L 769.886719 427.078125 L 934.234375 431.769531 "/>
<path fill-rule="nonzero" fill="rgb(80.076599%, 80.076599%, 80.076599%)" fill-opacity="1" d="M 868.539062 393.808594 C 868.539062 396.449219 872.835938 398.589844 878.132812 398.589844 C 883.433594 398.589844 887.726562 396.449219 887.726562 393.808594 C 887.726562 391.179688 883.433594 389.039062 878.132812 389.039062 C 872.835938 389.039062 868.539062 391.179688 868.539062 393.808594 "/>
<path fill-rule="nonzero" fill="rgb(90.234375%, 90.234375%, 90.234375%)" fill-opacity="1" d="M 493.976562 1655.558594 C 485.589844 1655.558594 476.871094 1655.378906 467.925781 1655 C 403.199219 1652.25 351.148438 1640.191406 351.664062 1628.058594 C 352.109375 1617.601562 391.449219 1610.511719 443.730469 1610.511719 C 452.121094 1610.511719 460.839844 1610.691406 469.792969 1611.070312 C 534.515625 1613.832031 586.566406 1625.890625 586.050781 1638.019531 C 585.609375 1648.46875 546.265625 1655.558594 493.976562 1655.558594 "/>
<path fill-rule="nonzero" fill="rgb(100%, 60.351562%, 60.351562%)" fill-opacity="1" d="M 399.859375 1602.890625 L 391.378906 1627.910156 L 374.414062 1627.441406 L 377.804688 1598.5 L 399.859375 1602.890625 "/>
<path fill-rule="nonzero" fill="rgb(0%, 20.384216%, 40.380859%)" fill-opacity="1" d="M 416.824219 1298.730469 C 416.824219 1298.730469 404.949219 1327.378906 411.734375 1360.121094 C 418.523438 1392.859375 428.699219 1438.359375 428.699219 1438.359375 C 428.699219 1438.359375 394.976562 1472.699219 382.894531 1538.128906 C 373.003906 1591.71875 373.289062 1599.070312 373.289062 1599.070312 L 400.992188 1607.550781 C 400.992188 1607.550781 447.371094 1516.359375 460.941406 1471.828125 C 474.511719 1427.300781 484.6875 1403.078125 477.902344 1358.070312 C 471.113281 1313.050781 469.417969 1302.820312 469.417969 1302.820312 L 416.824219 1298.730469 "/>
<path fill-rule="nonzero" fill="rgb(96.09375%, 61.914062%, 51.367188%)" fill-opacity="1" d="M 499.394531 1106.511719 L 497.699219 1135.140625 L 465.460938 1129 L 471.824219 1099.75 L 499.394531 1106.511719 "/>
<path fill-rule="nonzero" fill="rgb(100%, 60.351562%, 60.351562%)" fill-opacity="1" d="M 523.144531 1599.628906 L 519.75 1630.320312 L 502.789062 1626.21875 L 502.789062 1597.582031 L 523.144531 1599.628906 "/>
<path fill-rule="nonzero" fill="rgb(13.330078%, 16.868591%, 33.325195%)" fill-opacity="1" d="M 502.226562 1626.21875 L 502.535156 1626.351562 C 502.621094 1626.320312 502.695312 1626.25 502.789062 1626.21875 L 502.226562 1626.21875 "/>
<path fill-rule="nonzero" fill="rgb(13.330078%, 16.868591%, 33.325195%)" fill-opacity="1" d="M 552.550781 1621.449219 C 538.980469 1615.988281 519.75 1628.46875 519.75 1628.46875 L 502.535156 1626.351562 C 496.074219 1628.769531 498.261719 1646 498.261719 1646 L 566.125 1646 C 566.125 1646 566.125 1626.910156 552.550781 1621.449219 "/>
<path fill-rule="nonzero" fill="rgb(13.330078%, 16.868591%, 33.325195%)" fill-opacity="1" d="M 366.5 1626.21875 L 366.808594 1626.351562 C 366.902344 1626.320312 366.96875 1626.25 367.0625 1626.230469 L 366.5 1626.21875 "/>
<path fill-rule="nonzero" fill="rgb(13.330078%, 16.868591%, 33.325195%)" fill-opacity="1" d="M 424.179688 1617.5 C 410.605469 1612.039062 391.382812 1624.53125 391.382812 1624.53125 L 374.164062 1622.390625 C 367.703125 1624.820312 369.894531 1642.050781 369.894531 1642.050781 L 437.753906 1642.050781 C 437.753906 1642.050781 437.753906 1622.960938 424.179688 1617.5 "/>
<path fill-rule="nonzero" fill="rgb(100%, 60.351562%, 60.351562%)" fill-opacity="1" d="M 483.277344 1029.109375 C 483.277344 1029.109375 539.261719 1080.269531 515.511719 1102.769531 C 491.757812 1125.261719 464.617188 1110.941406 461.21875 1090.5 C 457.824219 1070.039062 444.253906 1045.480469 483.277344 1029.109375 "/>
<path fill-rule="nonzero" fill="rgb(5.883789%, 21.972656%, 35.301208%)" fill-opacity="1" d="M 500.242188 1012.738281 C 491.210938 1003.21875 474.792969 988.1875 468.007812 1004.558594 C 461.21875 1020.929688 447.472656 1037.039062 432.382812 1047.53125 C 400.570312 1069.640625 474.792969 1110.941406 474.792969 1110.941406 L 479.882812 1102.769531 C 479.882812 1102.769531 466.308594 1072.078125 474.792969 1072.078125 C 483.277344 1072.078125 486.667969 1080.269531 486.667969 1080.269531 L 493.457031 1074.128906 C 493.457031 1074.128906 476.488281 1049.570312 483.277344 1047.53125 C 490.0625 1045.480469 513.816406 1027.070312 500.242188 1012.738281 "/>
<path fill-rule="nonzero" fill="rgb(39.598083%, 39.598083%, 79.6875%)" fill-opacity="1" d="M 509.566406 1276.328125 C 509.566406 1276.328125 544.636719 1398.589844 548.027344 1427.71875 C 551.421875 1456.859375 529.929688 1607.808594 529.929688 1607.808594 L 499.394531 1608.261719 C 499.394531 1608.261719 491.480469 1564.671875 491.480469 1501.238281 C 491.480469 1463.480469 501.660156 1443.550781 501.660156 1443.550781 C 501.660156 1443.550781 434.925781 1356.128906 424.746094 1288.601562 L 509.566406 1276.328125 "/>
<path fill-rule="nonzero" fill="rgb(100%, 55.271912%, 10.984802%)" fill-opacity="1" d="M 465.460938 1129 C 465.460938 1129 438.320312 1143.269531 429.835938 1173.238281 C 413.296875 1231.679688 410.042969 1325.929688 410.042969 1325.929688 L 527.671875 1327.121094 C 527.671875 1327.121094 521.453125 1163.789062 497.699219 1135.140625 L 465.460938 1129 "/>
<path fill-rule="nonzero" fill="rgb(100%, 60.351562%, 60.351562%)" fill-opacity="1" d="M 560.464844 1135.140625 L 551.136719 1010.679688 L 537.136719 1011.53125 L 529.929688 1145.371094 L 560.464844 1135.140625 "/>
<path fill-rule="nonzero" fill="rgb(13.330078%, 16.868591%, 33.325195%)" fill-opacity="1" d="M 509.234375 1043.660156 L 601.632812 955.441406 L 624.257812 987.105469 L 514.550781 1049.308594 L 509.234375 1043.660156 "/>
<path fill-rule="nonzero" fill="rgb(38.426208%, 75.78125%, 76.951599%)" fill-opacity="1" d="M 617.738281 967.933594 C 624.277344 976.589844 627.554688 985.152344 625.027344 987.054688 C 622.519531 988.953125 615.167969 983.472656 608.632812 974.816406 C 602.09375 966.167969 598.816406 957.601562 601.34375 955.703125 C 603.863281 953.800781 611.203125 959.277344 617.738281 967.933594 "/>
<path fill-rule="nonzero" fill="rgb(100%, 60.351562%, 60.351562%)" fill-opacity="1" d="M 546.898438 1130.308594 L 577.007812 1103.558594 L 585.488281 996.6875 C 585.488281 996.6875 560.464844 994.207031 565.558594 984.246094 C 570.648438 974.28125 589.308594 974.28125 599.484375 992.546875 C 609.664062 1010.808594 611.363281 1098.800781 607.972656 1110.390625 C 604.578125 1122 571.070312 1159.53125 571.070312 1159.53125 L 546.898438 1130.308594 "/>
<path fill-rule="nonzero" fill="rgb(100%, 55.271912%, 10.984802%)" fill-opacity="1" d="M 489.640625 1177.761719 C 483.148438 1165.761719 489.214844 1143.320312 512.96875 1137.179688 C 536.714844 1131.050781 553.679688 1116.71875 553.679688 1116.71875 L 584.21875 1149.460938 C 584.21875 1149.460938 515.085938 1224.828125 489.640625 1177.761719 "/>
<path fill-rule="nonzero" fill="rgb(100%, 60.351562%, 60.351562%)" fill-opacity="1" d="M 555.722656 999.367188 C 558.328125 1002.96875 555.28125 1009.621094 548.925781 1014.210938 C 542.558594 1018.808594 535.300781 1019.601562 532.695312 1015.988281 C 530.089844 1012.390625 533.125 1005.738281 539.484375 1001.148438 C 545.851562 996.550781 553.109375 995.761719 555.722656 999.367188 "/>
<path fill-rule="nonzero" fill="rgb(19.993591%, 19.993591%, 19.993591%)" fill-opacity="1" d="M 1350.671875 573.910156 C 1360.410156 569.300781 1371.089844 566.691406 1381.371094 569.03125 C 1391.648438 571.359375 1401.429688 579.25 1405.441406 590.988281 C 1410.671875 606.289062 1405.269531 623.988281 1397.558594 637.648438 C 1395.308594 641.628906 1392.519531 645.710938 1388.628906 646.609375 C 1385.300781 647.371094 1381.878906 645.558594 1379.261719 642.941406 C 1372.691406 636.339844 1368.320312 627.890625 1360.988281 622.070312 C 1356.539062 618.539062 1351.320312 615.859375 1347.328125 611.53125 C 1343.519531 607.398438 1341.339844 601.75 1340.03125 595.800781 C 1337.519531 584.421875 1342.140625 577.949219 1350.671875 573.910156 "/>
<path fill-rule="nonzero" fill="rgb(86.71875%, 55.271912%, 45.483398%)" fill-opacity="1" d="M 1254.078125 718.933594 C 1257.671875 721.875 1263.261719 726.519531 1269.941406 732.410156 C 1281.03125 742.183594 1284.121094 746.664062 1293.238281 753.117188 C 1305.109375 761.523438 1311.238281 762.414062 1313.46875 762.648438 C 1321.691406 763.511719 1327.960938 760.808594 1329.351562 760.175781 C 1341.289062 754.773438 1345.480469 743.164062 1346.289062 740.765625 C 1338.410156 735.351562 1330.53125 729.941406 1322.648438 724.527344 C 1320.53125 728.410156 1318.410156 732.292969 1316.289062 736.175781 C 1299.511719 727.613281 1282.730469 719.054688 1265.949219 710.492188 C 1265.949219 710.492188 1263.511719 683.789062 1259.230469 685.269531 C 1254.96875 686.757812 1256.789062 698.625 1256.789062 698.625 C 1256.789062 698.625 1251.921875 691.203125 1249.480469 686.015625 C 1247.851562 682.558594 1244.078125 680.429688 1241.011719 681.558594 C 1238.75 682.390625 1237.648438 685.03125 1237.28125 686.015625 C 1233.660156 695.664062 1250.960938 715.421875 1254.078125 718.933594 "/>
<path fill-rule="nonzero" fill="rgb(32.542419%, 27.830505%, 25.488281%)" fill-opacity="1" d="M 1349.851562 872.164062 L 1375.589844 1109.550781 L 1399.300781 1109.550781 L 1407.519531 912.195312 L 1422.878906 1111.789062 L 1443.351562 1109.550781 L 1452.761719 853.925781 L 1349.839844 853.925781 L 1349.851562 872.164062 "/>
<path fill-rule="nonzero" fill="rgb(0%, 44.309998%, 73.631287%)" fill-opacity="1" d="M 1455.96875 762.789062 C 1448.039062 766.851562 1440.699219 769.171875 1434.851562 770.550781 C 1438.039062 801.109375 1444.878906 822.058594 1450.878906 835.941406 C 1452.699219 840.140625 1454.941406 844.851562 1453.75 850.648438 C 1449.988281 869.039062 1416.121094 876.949219 1399.300781 878.761719 C 1389.078125 879.859375 1371.390625 880.191406 1349.851562 872.160156 C 1350.898438 828.480469 1351.949219 784.800781 1353 741.121094 C 1348.878906 746.179688 1344.761719 751.238281 1340.648438 756.289062 C 1337.078125 753.769531 1331.269531 748.960938 1326.53125 741.121094 C 1322.121094 733.820312 1320.488281 726.980469 1319.820312 722.761719 C 1323.070312 718.789062 1328.488281 712.089844 1335.121094 703.710938 C 1359.789062 672.480469 1364.519531 664.109375 1375.488281 660.949219 C 1382.058594 659.050781 1392.339844 658.578125 1407.410156 666.738281 C 1430.421875 673.441406 1433.820312 675.820312 1433.820312 675.820312 C 1440.199219 687.171875 1446.609375 699.410156 1452.878906 712.53125 C 1459.679688 726.738281 1465.570312 740.421875 1470.691406 753.421875 C 1466.800781 756.441406 1461.910156 759.75 1455.96875 762.789062 "/>
<path fill-rule="nonzero" fill="rgb(86.71875%, 55.271912%, 45.483398%)" fill-opacity="1" d="M 1479.378906 858.066406 C 1481.089844 860.882812 1483.671875 865.328125 1486.410156 871 C 1492.75 884.101562 1491.851562 886.953125 1497.039062 895.148438 C 1502.03125 903.03125 1507.558594 907.824219 1506.351562 909.386719 C 1505.921875 909.9375 1504.738281 909.957031 1502.53125 909.238281 C 1493.378906 906.269531 1473.960938 890.695312 1473.960938 890.695312 C 1473.960938 890.695312 1472.648438 915.171875 1467.160156 903.304688 C 1461.671875 891.4375 1467.160156 864 1467.160156 864 C 1457.460938 832.578125 1447.761719 801.15625 1438.070312 769.734375 C 1448.179688 765.136719 1458.300781 760.539062 1468.410156 755.941406 C 1472.070312 789.984375 1475.730469 824.023438 1479.378906 858.066406 "/>
<path fill-rule="nonzero" fill="rgb(82.03125%, 54.101562%, 45.483398%)" fill-opacity="1" d="M 1376.289062 666.25 C 1376.671875 669.679688 1376.609375 672.601562 1375.699219 673.980469 C 1372.648438 678.601562 1392.011719 684.59375 1402.378906 665.890625 L 1390.328125 623.878906 L 1372.21875 647.449219 C 1372.21875 647.449219 1373.488281 651.71875 1374.648438 656.898438 C 1375.328125 659.929688 1375.980469 663.28125 1376.289062 666.25 "/>
<path fill-rule="nonzero" fill="rgb(72.851562%, 45.092773%, 37.646484%)" fill-opacity="1" d="M 1374.648438 656.898438 C 1375.328125 659.929688 1375.980469 663.28125 1376.289062 666.25 C 1380.398438 661.210938 1393.851562 650.78125 1389.238281 644.410156 L 1374.648438 656.898438 "/>
<path fill-rule="nonzero" fill="rgb(82.03125%, 54.101562%, 45.483398%)" fill-opacity="1" d="M 1344.058594 601.121094 C 1344.738281 605.511719 1345.738281 612.320312 1346.769531 620.71875 C 1348.671875 636.199219 1348.480469 639.238281 1350.878906 644.179688 C 1351.320312 645.070312 1358.878906 660.140625 1370.550781 660.421875 C 1382.308594 660.699219 1391.191406 645.78125 1394.179688 635.710938 C 1399.988281 616.109375 1390.609375 590.921875 1376.308594 587.378906 C 1369.578125 585.71875 1362.070312 588.921875 1358.679688 590.359375 C 1351.191406 593.550781 1346.449219 598.328125 1344.058594 601.121094 "/>
<path fill-rule="nonzero" fill="rgb(19.993591%, 19.993591%, 19.993591%)" fill-opacity="1" d="M 1382.648438 622.53125 C 1383.269531 622.371094 1383.898438 622.21875 1384.53125 622.058594 C 1383.941406 614.800781 1386.621094 609.640625 1389.710938 609.121094 C 1391.378906 608.828125 1393.28125 609.890625 1394.410156 611.230469 C 1396.839844 614.121094 1395.871094 618.488281 1395.398438 620.96875 C 1394.460938 625.929688 1393.671875 633.089844 1394.230469 643.089844 C 1397.808594 636.230469 1400.808594 626.179688 1401.851562 613.949219 C 1402.710938 603.769531 1400.648438 592.691406 1394.488281 585.710938 C 1388.449219 578.878906 1380.109375 577.738281 1374.371094 576.789062 C 1367.871094 575.730469 1353.339844 573.339844 1345.941406 582.53125 C 1342.910156 586.289062 1339.648438 593.769531 1342.648438 598.761719 C 1348.488281 608.511719 1371.941406 598.488281 1380.289062 609.589844 C 1383.28125 613.550781 1383.210938 618.710938 1382.648438 622.53125 "/>
<path fill-rule="nonzero" fill="rgb(1.567078%, 38.426208%, 58.789062%)" fill-opacity="1" d="M 1353 741.117188 L 1358.398438 723.707031 L 1351.558594 800.875 Z M 1353 741.117188 "/>
<path fill-rule="nonzero" fill="rgb(1.567078%, 38.426208%, 58.789062%)" fill-opacity="1" d="M 1453.75 850.648438 C 1449.988281 869.039062 1416.121094 876.949219 1399.300781 878.761719 C 1389.078125 879.859375 1371.390625 880.191406 1349.851562 872.160156 C 1349.851562 872.160156 1419.351562 872.179688 1431.121094 859.308594 C 1442.878906 846.441406 1447.121094 845.351562 1433 826.871094 C 1418.878906 808.390625 1417 714.058594 1417 714.058594 L 1434.851562 770.550781 C 1438.039062 801.109375 1444.878906 822.058594 1450.878906 835.941406 C 1452.699219 840.140625 1454.941406 844.851562 1453.75 850.648438 "/>
<path fill-rule="nonzero" fill="rgb(25.87738%, 12.939453%, 4.315186%)" fill-opacity="1" d="M 1375.589844 1109.550781 C 1367.03125 1118.320312 1359.808594 1124.570312 1354.648438 1128.761719 C 1351.320312 1131.46875 1347.5 1134.410156 1348.171875 1136.960938 C 1349.050781 1140.339844 1357.210938 1140.828125 1358.179688 1140.878906 C 1367.488281 1141.371094 1378.738281 1136.609375 1383.710938 1130.648438 C 1384.199219 1130.050781 1386.828125 1126.808594 1387.941406 1127.351562 C 1388.46875 1127.609375 1388.25 1128.539062 1388.660156 1128.828125 C 1389.449219 1129.359375 1392.160156 1127.378906 1398.761719 1119.941406 C 1398.941406 1116.480469 1399.121094 1113.011719 1399.300781 1109.550781 L 1375.589844 1109.550781 "/>
<path fill-rule="nonzero" fill="rgb(25.87738%, 12.939453%, 4.315186%)" fill-opacity="1" d="M 1422.878906 1111.789062 C 1422.878906 1111.789062 1423.351562 1148.378906 1438.179688 1145.101562 C 1453 1141.820312 1449.46875 1139.621094 1449.46875 1136.128906 C 1449.46875 1132.648438 1441.710938 1109.550781 1441.710938 1109.550781 L 1422.878906 1111.789062 "/>
<path fill-rule="nonzero" fill="rgb(87.889099%, 23.925781%, 15.281677%)" fill-opacity="1" d="M 1569.410156 678.96875 L 1559.480469 727.398438 L 1577.75 732.765625 Z M 1569.410156 678.96875 "/>
<path fill-rule="nonzero" fill="rgb(47.851562%, 11.767578%, 47.851562%)" fill-opacity="1" d="M 1678.171875 856.324219 L 1696.429688 975.832031 L 1748.398438 1105.210938 L 1718.929688 1124.058594 C 1718.929688 1124.058594 1646.269531 977.527344 1640.148438 966.492188 C 1634.019531 955.453125 1613.070312 885.828125 1607.839844 875.640625 C 1602.601562 865.453125 1606 837.855469 1606 837.855469 L 1679.449219 838.902344 L 1678.171875 856.324219 "/>
<path fill-rule="nonzero" fill="rgb(57.617188%, 15.281677%, 56.054688%)" fill-opacity="1" d="M 1679.019531 843.609375 C 1679.019531 843.609375 1614.769531 974.554688 1607.839844 991.324219 C 1600.910156 1008.101562 1565.050781 1137.578125 1565.050781 1137.578125 L 1538.070312 1116.78125 C 1538.070312 1116.78125 1555.058594 986.867188 1558.449219 970.738281 C 1561.851562 954.605469 1586.339844 831.828125 1586.339844 831.828125 L 1684.960938 828.425781 L 1679.019531 843.609375 "/>
<path fill-rule="nonzero" fill="rgb(98.826599%, 30.200195%, 18.041992%)" fill-opacity="1" d="M 1573.738281 709.226562 C 1576.929688 728.035156 1569.410156 690.386719 1582.269531 798.578125 C 1584.898438 820.648438 1587.101562 837.855469 1587.101562 837.855469 C 1587.101562 837.855469 1596.761719 837.855469 1606.949219 841.429688 C 1609.039062 842.15625 1611.148438 843.039062 1613.210938 844.101562 C 1625.320312 850.347656 1657.800781 851.234375 1679.449219 838.902344 C 1687.878906 834.105469 1690.621094 831.726562 1690.511719 829.839844 C 1690.25 825.28125 1684.910156 823.121094 1680.078125 817.125 C 1676.058594 812.136719 1674.628906 806.679688 1673.839844 780.488281 C 1673.558594 771.023438 1673.378906 759.5 1673.539062 746.324219 C 1674.910156 745.964844 1676.28125 745.605469 1677.660156 745.25 C 1688.699219 694.628906 1673.589844 676.53125 1669.261719 662 C 1665.429688 649.148438 1640.609375 639.238281 1640.609375 639.238281 C 1640.609375 639.238281 1638.871094 639.300781 1635.96875 639.449219 C 1612.300781 640.628906 1610.089844 640.238281 1605.261719 641.601562 C 1599.320312 643.269531 1595.238281 645.71875 1589.859375 648.941406 C 1583.128906 652.980469 1577.308594 657.671875 1574.980469 660.101562 C 1565.570312 669.960938 1570.171875 688.113281 1573.738281 709.226562 "/>
<path fill-rule="nonzero" fill="rgb(100%, 100%, 100%)" fill-opacity="1" d="M 1604.921875 644.050781 C 1606.410156 649.628906 1612.28125 655.300781 1618.941406 655.300781 C 1626.699219 655.300781 1636.359375 647.699219 1636.359375 641.488281 C 1636.359375 640.75 1636.230469 640.070312 1635.96875 639.449219 C 1631.570312 639.71875 1627.128906 639.96875 1622.640625 640.199219 C 1618.070312 640.441406 1613.539062 640.640625 1609.050781 640.820312 C 1607.550781 641.148438 1606.050781 641.480469 1604.550781 641.808594 C 1604.589844 642.378906 1604.679688 643.160156 1604.921875 644.050781 "/>
<path fill-rule="nonzero" fill="rgb(100%, 66.992188%, 55.664062%)" fill-opacity="1" d="M 1580.738281 579 C 1580.738281 579 1585.199219 634.21875 1590.929688 639.238281 C 1596.660156 644.269531 1629.769531 637.699219 1631.050781 622.519531 C 1632.320312 607.328125 1643.148438 577.949219 1622.128906 576.398438 C 1601.121094 574.859375 1587.109375 561.480469 1580.738281 579 "/>
<path fill-rule="nonzero" fill="rgb(25.87738%, 12.939453%, 4.315186%)" fill-opacity="1" d="M 1485.011719 1115.5 C 1486.28125 1126.121094 1557.179688 1154.089844 1557.179688 1154.089844 C 1557.179688 1154.089844 1568.550781 1139.679688 1564.558594 1128.859375 L 1547.210938 1115.910156 C 1547.210938 1115.910156 1483.730469 1104.890625 1485.011719 1115.5 "/>
<path fill-rule="nonzero" fill="rgb(100%, 66.992188%, 55.664062%)" fill-opacity="1" d="M 1625.320312 621.800781 L 1631.160156 639.339844 C 1631.378906 640.539062 1631.488281 642.269531 1630.789062 644.03125 C 1628.519531 649.761719 1618.820312 653.070312 1613.25 649.078125 C 1610.261719 646.929688 1609.429688 643.378906 1609.171875 641.78125 C 1608.730469 638.199219 1608.289062 634.621094 1607.851562 631.039062 L 1625.320312 621.800781 "/>
<path fill-rule="nonzero" fill="rgb(87.889099%, 23.925781%, 15.281677%)" fill-opacity="1" d="M 1634.960938 692.804688 L 1643.011719 744.613281 L 1672.441406 746.363281 L 1633.28125 754.117188 L 1607.851562 773.773438 L 1623.269531 737.039062 L 1634.960938 692.804688 "/>
<path fill-rule="nonzero" fill="rgb(87.889099%, 23.925781%, 15.281677%)" fill-opacity="1" d="M 1582.269531 798.578125 C 1584.898438 820.648438 1587.101562 837.855469 1587.101562 837.855469 C 1587.101562 837.855469 1596.761719 837.855469 1606.949219 841.429688 C 1605.371094 836.230469 1602.75 824.625 1607.851562 817.125 C 1614.578125 807.222656 1672.449219 773.773438 1672.449219 773.773438 L 1672.449219 761.910156 L 1582.269531 798.578125 "/>
<path fill-rule="nonzero" fill="rgb(98.826599%, 65.039062%, 56.054688%)" fill-opacity="1" d="M 1578.441406 817.429688 C 1595.039062 812.382812 1608.460938 806.980469 1618.101562 802.726562 C 1657.328125 785.402344 1665.550781 773.074219 1668 769.0625 C 1673.371094 760.234375 1675.261719 751.535156 1676.011719 745.714844 C 1666.710938 745.449219 1657.410156 745.183594 1648.109375 744.917969 C 1647.121094 749.511719 1646.128906 754.105469 1645.140625 758.699219 C 1629.511719 766.5625 1616.96875 773.871094 1607.929688 779.425781 C 1607.929688 779.425781 1600.910156 783.746094 1572.039062 802.746094 L 1544.441406 808.5625 C 1543.738281 809.453125 1542.808594 810.847656 1543.269531 811.847656 C 1544.539062 814.628906 1554.691406 810.390625 1557.710938 814.242188 C 1559.511719 816.539062 1558.25 821.066406 1556.378906 823.808594 C 1552.988281 828.765625 1547.949219 827.34375 1543.21875 832.976562 C 1541.441406 835.085938 1539.269531 838.710938 1540.121094 839.71875 C 1541.320312 841.140625 1549.078125 838.003906 1578.441406 817.429688 "/>
<path fill-rule="nonzero" fill="rgb(91.014099%, 56.054688%, 49.414062%)" fill-opacity="1" d="M 1504.960938 727.011719 L 1559.480469 727.398438 L 1575.050781 731.472656 L 1577.75 758.78125 C 1577.75 758.78125 1500.710938 739.789062 1499.441406 739.363281 C 1495.160156 737.9375 1480.839844 740.78125 1476.089844 733.289062 C 1473.429688 729.089844 1474.570312 723.542969 1475.960938 719.5 C 1472.429688 716.179688 1468.910156 712.855469 1465.390625 709.535156 C 1464.738281 708.285156 1465.210938 707.054688 1465.890625 706.804688 C 1466.390625 706.621094 1467.089844 706.929688 1467.601562 707.523438 C 1473.121094 710.921875 1478.640625 714.316406 1484.160156 717.714844 L 1491.378906 719.410156 C 1490.058594 718.875 1486.410156 717.183594 1485.320312 713.621094 C 1484.730469 711.671875 1484.890625 709.113281 1485.71875 708.835938 C 1486.261719 708.65625 1486.808594 709.519531 1488.308594 710.828125 C 1490.148438 712.425781 1491.539062 713.074219 1492.398438 713.621094 C 1494.179688 714.761719 1497.660156 718.03125 1504.960938 727.011719 "/>
<path fill-rule="nonzero" fill="rgb(25.87738%, 12.939453%, 4.315186%)" fill-opacity="1" d="M 1748.398438 1105.210938 C 1748.398438 1105.210938 1771.78125 1111.699219 1764.78125 1128.25 C 1757.769531 1144.800781 1730.390625 1161.78125 1722.109375 1169.839844 C 1713.828125 1177.910156 1680.648438 1174.710938 1690.511719 1169.839844 C 1700.371094 1164.980469 1716.988281 1147.769531 1715.730469 1145.96875 C 1714.46875 1144.160156 1718.929688 1124.058594 1718.929688 1124.058594 L 1748.398438 1105.210938 "/>
<path fill-rule="nonzero" fill="rgb(10.205078%, 10.205078%, 10.205078%)" fill-opacity="1" d="M 1562.550781 576.210938 C 1562.378906 574.941406 1561.75 570.269531 1564.71875 565.789062 C 1566.738281 562.738281 1569.859375 560.410156 1573.46875 559.730469 C 1573.46875 562.738281 1573.46875 565.75 1573.46875 568.761719 C 1579.851562 558.558594 1592.910156 553.03125 1604.671875 555.550781 C 1600.019531 555.769531 1595.558594 558.398438 1593.109375 562.359375 C 1601.28125 560.738281 1609.539062 559.121094 1617.859375 559.410156 C 1626.191406 559.691406 1634.710938 562.058594 1640.960938 567.570312 C 1653.398438 578.511719 1650.191406 597.910156 1649.328125 602.359375 C 1645.839844 620.460938 1631.980469 630.140625 1628.789062 632.238281 C 1628.109375 631.148438 1627.28125 629.46875 1627.171875 627.378906 C 1626.949219 622.980469 1630.121094 620.460938 1631.589844 617.050781 C 1632.921875 613.960938 1633.320312 609.058594 1629.191406 601.109375 C 1628.789062 600.921875 1625.039062 599.21875 1621.75 601.109375 C 1618.441406 603.011719 1616.929688 607.800781 1618.828125 612.269531 C 1618.089844 612.441406 1617.351562 612.609375 1616.609375 612.78125 C 1615.851562 605.238281 1615.089844 597.710938 1614.328125 590.179688 C 1611.539062 591.609375 1592.539062 601.058594 1576.308594 592.339844 C 1573.679688 590.921875 1563.828125 585.621094 1562.550781 576.210938 "/>
<path fill-rule="nonzero" fill="rgb(93.75%, 59.179688%, 49.804688%)" fill-opacity="1" d="M 1609.148438 639.449219 C 1609.148438 639.449219 1619.761719 635.789062 1622.148438 631.398438 L 1613.25 649.078125 C 1613.25 649.078125 1609.839844 646.960938 1609.148438 639.449219 "/>
<path fill-rule="nonzero" fill="rgb(93.75%, 59.179688%, 49.804688%)" fill-opacity="1" d="M 1622.191406 604.628906 C 1622.550781 604.46875 1622.960938 604.441406 1623.359375 604.410156 C 1624.328125 604.339844 1625.371094 604.300781 1626.171875 604.851562 C 1627.140625 605.519531 1627.390625 606.839844 1627.339844 608.019531 C 1627.21875 610.378906 1626.191406 612.601562 1625.121094 614.710938 C 1624.941406 615.070312 1624.761719 615.441406 1624.5 615.75 C 1624.398438 615.871094 1624.269531 616 1624.101562 616 C 1623.929688 616 1623.800781 615.871094 1623.691406 615.738281 C 1623.160156 615.058594 1622.898438 614.179688 1622.980469 613.328125 C 1623.070312 612.378906 1623.558594 611.449219 1623.328125 610.53125 L 1623.210938 610.300781 C 1623.128906 610.230469 1623 610.238281 1622.890625 610.238281 C 1621.441406 610.328125 1619.519531 610.339844 1619.46875 608.371094 C 1619.429688 607.078125 1621.078125 605.140625 1622.191406 604.628906 "/>
<path fill-rule="nonzero" fill="rgb(100%, 59.179688%, 47.459412%)" fill-opacity="1" d="M 1816.828125 668.019531 L 1840.480469 685.972656 L 1860.160156 667.390625 L 1850.988281 666.871094 C 1852.488281 659.078125 1854 651.289062 1855.5 643.511719 C 1846.339844 643.320312 1837.171875 643.128906 1828.011719 642.941406 L 1823.589844 666.25 L 1816.828125 668.019531 "/>
<path fill-rule="nonzero" fill="rgb(100%, 67.381287%, 54.101562%)" fill-opacity="1" d="M 1749.71875 695.113281 C 1751.539062 688.890625 1753.359375 682.671875 1755.171875 676.449219 C 1755.230469 676.289062 1756.039062 673.980469 1758.441406 673.378906 C 1760.460938 672.871094 1762.050781 673.980469 1762.269531 674.148438 C 1763.070312 673.070312 1765.148438 670.609375 1767.878906 670.601562 C 1772.320312 670.589844 1775.980469 677.089844 1775.390625 682.148438 C 1775.300781 682.921875 1774.980469 684.773438 1771.480469 689.238281 C 1769.429688 691.851562 1766.21875 695.445312 1761.5 699.082031 C 1757.578125 697.757812 1753.648438 696.433594 1749.71875 695.113281 "/>
<path fill-rule="nonzero" fill="rgb(46.655273%, 74.021912%, 92.576599%)" fill-opacity="1" d="M 1813.589844 676.058594 C 1813.589844 676.058594 1800.550781 674.929688 1790.910156 696.910156 C 1781.269531 718.890625 1767.28125 758.21875 1764.828125 752.699219 C 1762.378906 747.179688 1767 696.910156 1767 696.910156 L 1750.449219 691.394531 C 1750.449219 691.394531 1717.589844 800.039062 1749.828125 804.023438 C 1790.910156 809.101562 1862.03125 737.375 1813.589844 676.058594 "/>
<path fill-rule="nonzero" fill="rgb(21.972656%, 11.767578%, 37.646484%)" fill-opacity="1" d="M 1800.261719 1162.238281 C 1800.261719 1162.238281 1784.621094 1166.300781 1778.191406 1173.660156 C 1771.75 1181.011719 1771.289062 1185.078125 1771.289062 1185.078125 L 1835.789062 1181.308594 L 1835.789062 1162.238281 L 1800.261719 1162.238281 "/>
<path fill-rule="nonzero" fill="rgb(10.205078%, 40.795898%, 35.301208%)" fill-opacity="1" d="M 1798.878906 829.894531 C 1798.878906 829.894531 1784.78125 931.722656 1786 1001.609375 C 1787.230469 1071.5 1800.261719 1162.238281 1800.261719 1162.238281 L 1835.789062 1162.238281 C 1835.789062 1162.238281 1819.71875 1050.039062 1831.980469 999.769531 C 1844.25 949.5 1880.640625 824.429688 1880.640625 824.429688 L 1798.878906 829.894531 "/>
<path fill-rule="nonzero" fill="rgb(21.972656%, 11.767578%, 37.646484%)" fill-opacity="1" d="M 1937.738281 1162.238281 C 1937.738281 1162.238281 1941.421875 1168.980469 1937.738281 1171.28125 C 1934.058594 1173.578125 1895.898438 1196.570312 1918.890625 1194.269531 C 1938.238281 1192.339844 1964.871094 1185.078125 1964.871094 1185.078125 L 1956.128906 1157.488281 L 1937.738281 1162.238281 "/>
<path fill-rule="nonzero" fill="rgb(25.097656%, 58.789062%, 50.976562%)" fill-opacity="1" d="M 1830.761719 824.429688 C 1830.761719 824.429688 1814.210938 907.195312 1846.089844 983.21875 C 1877.96875 1059.238281 1936.820312 1165.921875 1936.820312 1165.921875 L 1958.890625 1161.628906 C 1958.890625 1161.628906 1904.941406 1008.359375 1896.96875 974.023438 C 1889 939.6875 1900.988281 839.246094 1900.988281 839.246094 L 1830.761719 824.429688 "/>
<path fill-rule="nonzero" fill="rgb(29.80957%, 65.039062%, 94.53125%)" fill-opacity="1" d="M 1858.980469 666.871094 C 1858.980469 666.871094 1849.269531 678.941406 1835.570312 675.871094 C 1821.871094 672.808594 1820.339844 666.871094 1820.339844 666.871094 C 1820.339844 666.871094 1806.238281 668.101562 1801.328125 695.070312 C 1796.429688 722.046875 1794.191406 861.167969 1794.191406 861.167969 L 1909.710938 856.988281 C 1909.710938 856.988281 1912.351562 676.679688 1858.980469 666.871094 "/>
<path fill-rule="nonzero" fill="rgb(100%, 67.381287%, 54.101562%)" fill-opacity="1" d="M 1807.460938 748.414062 C 1802.441406 741.027344 1802.078125 736.523438 1802.761719 733.730469 C 1802.921875 733.066406 1803.679688 730.277344 1802.980469 726.933594 C 1802.710938 725.625 1802.328125 723.921875 1801.058594 723.320312 C 1799.511719 722.585938 1798.351562 724.324219 1796.269531 724.101562 C 1793.421875 723.792969 1793.371094 720.304688 1790.601562 719.324219 C 1786.921875 718.027344 1781.328125 722.179688 1779.109375 726.785156 C 1778.71875 727.59375 1777.738281 729.6875 1777.921875 732.453125 C 1777.988281 733.523438 1778.300781 735.800781 1780.601562 739.019531 C 1783.410156 742.929688 1786.378906 744.359375 1788.511719 746.027344 C 1791.390625 748.289062 1793.558594 755.792969 1802.378906 760.203125 C 1806.148438 755.804688 1803.691406 752.8125 1807.460938 748.414062 "/>
<path fill-rule="nonzero" fill="rgb(52.929688%, 80.859375%, 100%)" fill-opacity="1" d="M 1858.980469 680.359375 C 1866.621094 677.480469 1877.460938 682.398438 1884.671875 693.285156 C 1888.988281 703.035156 1894.871094 719.433594 1895.761719 740.417969 C 1896.519531 758.191406 1897.140625 772.902344 1887.699219 782.003906 C 1872.019531 797.113281 1840.148438 785.660156 1829.980469 782.003906 C 1812.078125 775.574219 1800.609375 763.378906 1793.558594 756.546875 C 1796.671875 751.421875 1803.808594 751.339844 1806.921875 746.214844 C 1810.121094 749.199219 1809.261719 749.3125 1814.28125 752.011719 C 1832.128906 761.609375 1850.179688 759.265625 1857.710938 757.808594 C 1858.511719 752.738281 1859.179688 745.097656 1857.710938 736.132812 C 1854.789062 718.367188 1846.320312 712.796875 1847.878906 699.335938 C 1848.121094 697.230469 1849.898438 683.78125 1858.980469 680.359375 "/>
<path fill-rule="nonzero" fill="rgb(100%, 67.381287%, 54.101562%)" fill-opacity="1" d="M 1862.941406 583.71875 C 1852.351562 576.160156 1833.671875 577.160156 1826.199219 585.910156 C 1823.878906 588.640625 1822.648438 592.101562 1820.910156 597 C 1819.511719 600.929688 1818.738281 604.398438 1817.128906 614.648438 C 1815.628906 624.171875 1814.878906 628.929688 1814.859375 630.269531 C 1814.769531 635.039062 1814.449219 651.941406 1824.101562 657.21875 C 1831.878906 661.488281 1842.160156 656 1847.878906 652.960938 C 1857.679688 647.730469 1863.210938 640.160156 1865.769531 636.070312 C 1879.289062 616.101562 1875.679688 592.808594 1862.941406 583.71875 "/>
<path fill-rule="nonzero" fill="rgb(30.589294%, 2.352905%, 6.665039%)" fill-opacity="1" d="M 1828.410156 565.648438 C 1828.410156 565.648438 1815.609375 594.539062 1829.269531 601.769531 C 1842.921875 609 1863.71875 613.871094 1859.730469 620.191406 C 1853.539062 629.980469 1852.691406 633.378906 1852.691406 633.378906 L 1854.789062 635.28125 L 1864.800781 630.339844 L 1855.679688 648.601562 C 1855.679688 648.601562 1905.699219 626.988281 1874.210938 585.730469 C 1858.890625 565.648438 1829.269531 582.988281 1828.410156 565.648438 "/>
<path fill-rule="nonzero" fill="rgb(100%, 69.726562%, 61.914062%)" fill-opacity="1" d="M 1291.199219 965.089844 C 1291.199219 965.089844 1277.070312 975.101562 1274.121094 1001 C 1271.179688 1026.910156 1281.769531 1035.738281 1285.898438 1035.148438 C 1290.019531 1034.558594 1290.019531 1034.558594 1290.019531 1034.558594 L 1288.839844 1056.339844 L 1312.980469 1055.171875 C 1312.980469 1055.171875 1318.28125 980.984375 1291.199219 965.089844 "/>
<path fill-rule="nonzero" fill="rgb(100%, 69.726562%, 61.914062%)" fill-opacity="1" d="M 1218.191406 1357.199219 C 1218.191406 1357.199219 1224.671875 1442.570312 1227.621094 1467.890625 C 1230.550781 1493.210938 1252.339844 1619.789062 1252.339844 1619.789062 C 1252.339844 1619.789062 1199.941406 1639.21875 1210.53125 1643.929688 C 1221.128906 1648.628906 1264.699219 1650.988281 1270 1642.160156 C 1275.300781 1633.332031 1272.941406 1563.851562 1275.300781 1525.589844 C 1277.660156 1487.320312 1265.878906 1450.808594 1265.878906 1450.808594 L 1275.300781 1387.808594 L 1218.191406 1357.199219 "/>
<path fill-rule="nonzero" fill="rgb(100%, 69.726562%, 61.914062%)" fill-opacity="1" d="M 1295.910156 1383.699219 C 1295.910156 1383.699219 1294.140625 1437.269531 1294.140625 1447.871094 C 1294.140625 1458.46875 1310.628906 1551.488281 1316.511719 1573.28125 C 1322.398438 1595.058594 1331.238281 1612.71875 1311.21875 1620.378906 C 1291.199219 1628.03125 1271.171875 1640.390625 1288.839844 1642.160156 C 1306.5 1643.929688 1338.878906 1645.109375 1343.589844 1631.570312 C 1348.308594 1618.019531 1343.011719 1525 1343.011719 1486.730469 C 1343.011719 1448.460938 1335.949219 1440.210938 1335.949219 1440.210938 L 1362.441406 1368.390625 L 1295.910156 1383.699219 "/>
<path fill-rule="nonzero" fill="rgb(93.75%, 42.358398%, 59.568787%)" fill-opacity="1" d="M 1304.738281 1048.691406 C 1304.738281 1048.691406 1228.210938 1046.328125 1227.03125 1076.949219 C 1225.851562 1107.558594 1237.628906 1157.019531 1240.570312 1181.75 C 1243.511719 1206.46875 1237.628906 1234.148438 1227.03125 1268.890625 C 1216.429688 1303.621094 1194.640625 1363.671875 1201.121094 1371.328125 C 1207.589844 1378.980469 1239.980469 1396.058594 1282.949219 1396.058594 C 1325.929688 1396.058594 1383.628906 1368.390625 1383.628906 1368.390625 C 1383.628906 1368.390625 1384.808594 1305.390625 1367.738281 1267.121094 C 1350.660156 1228.851562 1334.179688 1217.078125 1337.121094 1199.410156 C 1340.058594 1181.75 1351.25 1149.960938 1363.03125 1126.410156 C 1374.800781 1102.859375 1376.570312 1072.238281 1358.910156 1059.878906 C 1341.238281 1047.519531 1304.738281 1048.691406 1304.738281 1048.691406 "/>
<path fill-rule="nonzero" fill="rgb(100%, 69.726562%, 61.914062%)" fill-opacity="1" d="M 1191.109375 1096.960938 L 1189.941406 1087.550781 C 1189.941406 1087.550781 1187.570312 1072.238281 1185.21875 1066.351562 C 1182.871094 1060.460938 1179.339844 1052.808594 1178.75 1058.699219 C 1178.160156 1064.589844 1174.039062 1066.941406 1172.269531 1063.398438 C 1170.5 1059.871094 1159.320312 1041.628906 1160.488281 1052.808594 C 1161.671875 1063.988281 1162.851562 1073.421875 1169.910156 1085.78125 C 1176.980469 1098.140625 1183.460938 1103.441406 1183.460938 1103.441406 L 1191.109375 1096.960938 "/>
<path fill-rule="nonzero" fill="rgb(30.589294%, 2.352905%, 6.665039%)" fill-opacity="1" d="M 1320.640625 949.777344 C 1303.839844 946.652344 1275.300781 960.382812 1281.191406 983.933594 C 1287.078125 1007.480469 1312.390625 1016.898438 1304.738281 1034.558594 C 1297.089844 1052.21875 1263.53125 1087.550781 1272.941406 1115.808594 C 1282.371094 1144.070312 1294.730469 1166.441406 1324.75 1152.898438 C 1354.789062 1139.359375 1370.089844 1115.21875 1367.738281 1089.910156 C 1365.378906 1064.589844 1350.070312 1051.640625 1355.371094 1031.03125 C 1360.671875 1010.421875 1371.269531 959.203125 1320.640625 949.777344 "/>
<path fill-rule="nonzero" fill="rgb(100%, 52.146912%, 66.992188%)" fill-opacity="1" d="M 1238.800781 1077.539062 C 1233.199219 1070.710938 1213.480469 1108.738281 1213.480469 1108.738281 L 1188.761719 1089.320312 L 1181.691406 1099.910156 C 1181.691406 1099.910156 1199.351562 1132.300781 1216.429688 1133.46875 C 1233.5 1134.648438 1262.941406 1106.96875 1238.800781 1077.539062 "/>
<path fill-rule="nonzero" fill="rgb(30.200195%, 30.200195%, 30.200195%)" fill-opacity="1" d="M 1092.121094 1023.859375 L 1164.339844 981.671875 L 1186.101562 1048.648438 L 1117.800781 1093.378906 L 1092.121094 1023.859375 "/>
<path fill-rule="nonzero" fill="rgb(39.988708%, 39.988708%, 39.988708%)" fill-opacity="1" d="M 1245.269531 1064.589844 L 1186.101562 1048.648438 L 1117.800781 1093.378906 L 1186.101562 1117.03125 L 1245.269531 1064.589844 "/>
<path fill-rule="nonzero" fill="rgb(59.959412%, 59.959412%, 59.959412%)" fill-opacity="1" d="M 1181.691406 1087.429688 L 1200.5 1072.96875 L 1217.761719 1078.660156 L 1199.941406 1093 L 1181.691406 1087.429688 "/>
<path fill-rule="nonzero" fill="rgb(19.993591%, 19.993591%, 19.993591%)" fill-opacity="1" d="M 1117.800781 1098.648438 L 1117.800781 1093.378906 L 1186.101562 1117.03125 L 1186.101562 1121.359375 L 1117.800781 1098.648438 "/>
<path fill-rule="nonzero" fill="rgb(19.993591%, 19.993591%, 19.993591%)" fill-opacity="1" d="M 1245.269531 1069.628906 L 1245.269531 1064.589844 L 1186.101562 1117.03125 L 1186.101562 1121.359375 L 1245.269531 1069.628906 "/>
<path fill-rule="nonzero" fill="rgb(100%, 69.726562%, 61.914062%)" fill-opacity="1" d="M 1146.949219 1126.410156 L 1145.78125 1116.988281 C 1145.78125 1116.988281 1143.421875 1101.679688 1141.070312 1095.789062 C 1138.710938 1089.898438 1135.179688 1082.25 1134.589844 1088.128906 C 1134 1094.019531 1129.878906 1096.378906 1128.121094 1092.851562 C 1126.351562 1089.320312 1115.160156 1071.058594 1116.339844 1082.25 C 1117.519531 1093.429688 1118.691406 1102.859375 1125.761719 1115.21875 C 1132.820312 1127.578125 1139.300781 1132.878906 1139.300781 1132.878906 L 1146.949219 1126.410156 "/>
<path fill-rule="nonzero" fill="rgb(100%, 52.146912%, 66.992188%)" fill-opacity="1" d="M 1245.269531 1064.589844 C 1245.269531 1064.589844 1233.5 1045.75 1220.550781 1082.828125 C 1207.601562 1119.921875 1192.878906 1161.730469 1192.878906 1161.730469 L 1151.078125 1118.75 L 1136.941406 1129.941406 C 1136.941406 1129.941406 1180.511719 1205.890625 1197 1205.890625 C 1213.480469 1205.890625 1234.679688 1164.089844 1242.328125 1141.710938 C 1249.988281 1119.339844 1256.460938 1074.011719 1245.269531 1064.589844 "/>
<path fill-rule="nonzero" fill="rgb(21.972656%, 11.767578%, 37.646484%)" fill-opacity="1" d="M 1246.449219 1635.101562 C 1238.019531 1636.140625 1226.320312 1636.710938 1223.949219 1631.761719 C 1213.738281 1636.71875 1205.78125 1641.808594 1210.53125 1643.929688 C 1221.128906 1648.628906 1264.699219 1650.988281 1270 1642.160156 C 1271.589844 1639.519531 1272.480469 1631.46875 1273.03125 1620.480469 C 1268.210938 1624.070312 1254.171875 1634.128906 1246.449219 1635.101562 "/>
<path fill-rule="nonzero" fill="rgb(21.972656%, 11.767578%, 37.646484%)" fill-opacity="1" d="M 1325.941406 1627.441406 C 1314.75 1629.800781 1300.621094 1636.859375 1299.441406 1630.390625 C 1299.160156 1628.808594 1298.410156 1627.488281 1297.390625 1626.460938 C 1283.789062 1633.332031 1275.390625 1640.820312 1288.839844 1642.160156 C 1306.5 1643.929688 1338.878906 1645.109375 1343.589844 1631.570312 C 1344.488281 1628.988281 1345.019531 1623.550781 1345.300781 1616.167969 C 1339.859375 1620.667969 1332.238281 1626.109375 1325.941406 1627.441406 "/>
<path fill-rule="nonzero" fill="rgb(16.088867%, 66.992188%, 88.671875%)" fill-opacity="1" d="M 1100.03125 1026.589844 L 1162.089844 990.28125 L 1181.488281 1047 L 1120.808594 1085.148438 L 1100.03125 1026.589844 "/>
<path fill-rule="nonzero" fill="rgb(27.830505%, 19.993591%, 55.664062%)" fill-opacity="1" d="M 1618.261719 1238.429688 C 1618.261719 1238.429688 1632.820312 1244.171875 1630.171875 1278.121094 C 1627.519531 1312.078125 1617.378906 1359.71875 1617.378906 1375.589844 C 1617.378906 1391.46875 1612.96875 1488.941406 1611.640625 1522.03125 C 1610.320312 1555.109375 1608.558594 1582.449219 1599.730469 1582.449219 C 1590.910156 1582.449219 1558.710938 1583.769531 1567.539062 1577.601562 C 1576.359375 1571.421875 1590.480469 1564.808594 1590.480469 1564.808594 L 1575.480469 1438.230469 L 1568.859375 1266.660156 L 1618.261719 1238.429688 "/>
<path fill-rule="nonzero" fill="rgb(98.826599%, 73.242188%, 66.209412%)" fill-opacity="1" d="M 1498.519531 1005.601562 C 1498.519531 1005.601562 1490.761719 1002.269531 1490.761719 998.390625 C 1490.761719 994.507812 1491.308594 977.878906 1487.429688 981.207031 C 1483.550781 984.53125 1483.550781 991.1875 1483.550781 991.1875 C 1483.550781 991.1875 1469.128906 982.863281 1465.25 987.300781 C 1461.378906 991.734375 1491.859375 1017.238281 1491.859375 1017.238281 L 1498.519531 1005.601562 "/>
<path fill-rule="nonzero" fill="rgb(100%, 52.146912%, 66.992188%)" fill-opacity="1" d="M 1546.808594 1049.878906 C 1545.691406 1053.570312 1546.148438 1059.140625 1527.621094 1044.589844 C 1509.101562 1030.03125 1483.960938 1014.148438 1483.960938 1014.148438 L 1495.210938 1001.578125 C 1495.210938 1001.578125 1553.421875 1028.039062 1546.808594 1049.878906 "/>
<path fill-rule="nonzero" fill="rgb(34.104919%, 26.268005%, 55.664062%)" fill-opacity="1" d="M 1582.238281 1252.800781 C 1582.238281 1252.800781 1590.628906 1269.191406 1590.378906 1299.859375 C 1590.109375 1333.71875 1574.550781 1337.21875 1577.691406 1403.828125 C 1579.71875 1447.050781 1576.359375 1511.441406 1575.480469 1520.699219 C 1574.589844 1529.960938 1567.980469 1606.710938 1556.511719 1607.589844 C 1545.050781 1608.46875 1508.878906 1603.621094 1519.019531 1597.441406 C 1529.171875 1591.269531 1548.128906 1589.511719 1548.128906 1589.511719 C 1548.128906 1589.511719 1517.261719 1427.640625 1511.078125 1392.359375 C 1504.910156 1357.070312 1497.851562 1291.800781 1499.621094 1278.121094 C 1501.378906 1264.449219 1501.378906 1264.449219 1501.378906 1264.449219 L 1582.238281 1252.800781 "/>
<path fill-rule="nonzero" fill="rgb(98.826599%, 73.242188%, 66.209412%)" fill-opacity="1" d="M 1539.53125 1034 L 1546.148438 1069.070312 L 1558.71875 1065.089844 L 1550.121094 1032.019531 L 1539.53125 1034 "/>
<path fill-rule="nonzero" fill="rgb(98.826599%, 73.242188%, 66.209412%)" fill-opacity="1" d="M 1527.621094 961.226562 C 1527.621094 961.226562 1514.390625 973.136719 1515.71875 985.703125 C 1517.039062 998.273438 1524.980469 1041.941406 1538.871094 1041.941406 C 1552.769531 1041.941406 1554.089844 1034.660156 1552.769531 1022.089844 C 1551.441406 1009.519531 1527.621094 961.226562 1527.621094 961.226562 "/>
<path fill-rule="nonzero" fill="rgb(93.75%, 42.358398%, 59.568787%)" fill-opacity="1" d="M 1519.589844 1090.648438 C 1520.320312 1083.820312 1520.511719 1078.179688 1520.558594 1074.570312 C 1528.601562 1070.160156 1536.648438 1065.75 1544.691406 1061.339844 C 1560.359375 1053.550781 1602.941406 1034.230469 1620.910156 1050.539062 C 1641.070312 1068.839844 1624.699219 1126.960938 1619.578125 1145.148438 C 1611.609375 1173.460938 1597.578125 1203.308594 1609.660156 1217.261719 C 1611.871094 1219.800781 1617.46875 1224.738281 1623.351562 1234.179688 C 1627.429688 1240.730469 1629.898438 1246.640625 1631.351562 1250.648438 C 1618.25 1257.71875 1599.28125 1266.089844 1575.261719 1270.851562 C 1544.101562 1277.019531 1517.800781 1274.46875 1501.160156 1271.5 C 1500.269531 1264.398438 1499.730469 1253.320312 1503.121094 1240.769531 C 1509.710938 1216.328125 1524.460938 1211.210938 1524.980469 1194.101562 C 1525.539062 1175.609375 1508.46875 1176.179688 1505.699219 1154.421875 C 1503.25 1135.121094 1515.699219 1127.03125 1519.589844 1090.648438 "/>
<path fill-rule="nonzero" fill="rgb(98.826599%, 73.242188%, 66.209412%)" fill-opacity="1" d="M 1405.761719 1057.25 C 1405.761719 1057.25 1369.878906 1035.871094 1385.710938 1009.898438 C 1392.101562 999.433594 1401.441406 1029.328125 1401.441406 1029.328125 C 1401.441406 1029.328125 1399.5 1012.011719 1404.109375 1016.609375 C 1408.730469 1021.210938 1414.53125 1044.179688 1414.53125 1044.179688 L 1405.761719 1057.25 "/>
<path fill-rule="nonzero" fill="rgb(100%, 52.146912%, 66.992188%)" fill-opacity="1" d="M 1530 1076.769531 C 1538.210938 1081.089844 1537.078125 1139.371094 1506.648438 1136.058594 C 1476.210938 1132.75 1449.558594 1112.730469 1438.308594 1102.140625 C 1427.058594 1091.558594 1402.578125 1054.511719 1402.578125 1054.511719 L 1413.230469 1041.328125 L 1460.058594 1077.949219 C 1460.058594 1077.949219 1517.429688 1070.148438 1530 1076.769531 "/>
<path fill-rule="nonzero" fill="rgb(30.589294%, 2.352905%, 6.665039%)" fill-opacity="1" d="M 1534.019531 951.304688 C 1548.890625 942.316406 1582.539062 939.839844 1587.828125 964.539062 C 1593.121094 989.234375 1590.480469 1002.460938 1597.53125 1015.699219 C 1604.589844 1028.929688 1633.699219 1103.910156 1624 1126.839844 C 1614.289062 1149.78125 1586.070312 1184.179688 1555.191406 1164.769531 C 1524.320312 1145.371094 1534.019531 1134.789062 1543.71875 1096.851562 C 1553.421875 1058.921875 1557.839844 1053.628906 1546.371094 1035.988281 C 1534.898438 1018.351562 1496.089844 974.238281 1534.019531 951.304688 "/>
</svg>
